<svg viewBox="0 0 431 421" fill="none" xmlns="http://www.w3.org/2000/svg">
<path d="M312.737 130.174C311.551 123.324 303.376 120.349 298.064 124.834L277.62 142.093C263.32 133.795 247.655 129 231 129C211.778 129 194.296 134.899 178.917 144.962L161.5 130.257C156.188 125.772 148.013 128.748 146.827 135.598L137.611 188.799C117.986 220.357 107 260.006 107 296.5C107 331.158 109.947 359.686 127.5 381C154.265 413.5 189.648 421 231 421C274.79 421 313 421 339.5 381C353.534 359.816 361.5 336.176 361.5 304C361.5 264.301 346.761 218.861 322.102 184.235L312.737 130.174Z" fill="#DB7874"/>
<path d="M238.318 262.075C236.732 264.428 233.268 264.428 231.682 262.075L224.044 250.735C222.254 248.078 224.158 244.5 227.362 244.5H242.638C245.842 244.5 247.746 248.078 245.956 250.735L238.318 262.075Z" fill="#FAD058"/>
<path d="M152.012 331.593C149.863 333.752 146.3 333.504 144.471 331.069L134.249 317.466C131.676 314.041 134.32 309.178 138.593 309.475L160.818 311.018C165.091 311.315 167.037 316.497 164.015 319.533L152.012 331.593Z" fill="#E29288"/>
<path d="M238.896 331.361C236.902 333.664 233.331 333.664 231.337 331.361L220.198 318.499C217.393 315.261 219.694 310.226 223.977 310.226H246.256C250.539 310.226 252.84 315.261 250.035 318.499L238.896 331.361Z" fill="#E29288"/>
<path d="M323.762 331.069C321.932 333.504 318.369 333.751 316.221 331.593L304.218 319.532C301.196 316.496 303.142 311.314 307.416 311.017L329.64 309.475C333.914 309.178 336.557 314.042 333.984 317.467L323.762 331.069Z" fill="#E29288"/>
<path d="M193.407 370.714C191.16 372.77 187.613 372.356 185.899 369.839L176.324 355.773C173.914 352.232 176.782 347.497 181.037 347.993L203.165 350.573C207.42 351.069 209.122 356.337 205.961 359.228L193.407 370.714Z" fill="#E29288"/>
<path d="M283.334 369.839C281.62 372.356 278.073 372.77 275.826 370.714L263.272 359.228C260.111 356.337 261.813 351.069 266.068 350.573L288.196 347.993C292.451 347.497 295.319 352.232 292.909 355.773L283.334 369.839Z" fill="#E29288"/>
<path d="M380.007 318.135C371.466 360.27 342.887 404.786 329.682 378.486C318.271 355.758 318.283 342.931 319.575 312.465C320.866 281.999 332.759 261.632 353.131 262.495C373.503 263.359 386.031 288.414 380.007 318.135Z" fill="#BD5B58"/>
<path d="M345.223 88.3066C347.308 90.4605 346.607 94.025 343.862 95.2211L320.214 105.526C317.033 106.912 313.596 104.154 314.266 100.754L319.947 71.8926C320.616 68.4926 324.84 67.2543 327.256 69.7497L345.223 88.3066Z" fill="#383958"/>
<path d="M351.865 107.989C350.865 109.758 348.758 110.582 346.817 109.963L328.512 104.126C324.653 102.895 324.469 97.513 328.236 96.0398L355.962 85.1947C359.729 83.7215 363.272 87.7898 361.286 91.3066L351.865 107.989Z" fill="#383958"/>
<path d="M330.126 78.4713C329.814 66.1976 315.688 59.4261 305.925 66.8705L233.749 121.904C233.336 122.219 232.945 122.549 232.576 122.893C199.986 110.856 176.215 106.326 173.143 112.734C168.628 122.155 210.568 151.65 266.819 178.615C323.07 205.579 372.332 219.801 376.848 210.38C379.896 204.022 361.78 188.517 332.385 170.819C332.427 170.291 332.441 169.753 332.427 169.206L330.126 78.4713Z" fill="#383958"/>
<path d="M285.5 268C303.725 268 318.5 252.33 318.5 233C318.5 230.041 318.154 227.169 317.502 224.425C317.009 222.348 315.073 221.022 312.943 220.883C295.513 219.745 281.004 210.538 273.718 204.142C272.045 202.672 269.616 202.226 267.771 203.474C258.589 209.689 252.5 220.59 252.5 233C252.5 252.33 267.275 268 285.5 268Z" fill="white"/>
<path d="M187 267C168.775 267 154 251.436 154 232.237C154 229.303 154.345 226.454 154.994 223.733C155.489 221.661 157.423 220.34 159.549 220.202C176.99 219.073 191.508 209.919 198.791 203.565C200.461 202.109 202.875 201.666 204.714 202.901C213.904 209.072 220 219.905 220 232.237C220 251.436 205.225 267 187 267Z" fill="white"/>
<path d="M86.969 311.573C94.5082 353.899 122.024 399.08 135.847 373.1C147.794 350.648 148.086 337.825 147.517 307.337C146.948 276.849 135.541 256.206 115.155 256.586C94.7688 256.966 81.6512 281.717 86.969 311.573Z" fill="#BD5B58"/>
<path d="M266.663 227.922C265.775 228.305 265.19 228.933 264.854 229.751C264.512 230.583 264.417 231.636 264.572 232.859C264.883 235.309 266.178 238.315 268.193 241.248C272.234 247.131 278.994 252.481 285.949 252.481C292.895 252.481 299.269 247.142 303.121 241.257C305.04 238.325 306.296 235.311 306.679 232.846C307.067 230.343 306.54 228.618 305.203 227.904C304.474 227.514 303.845 227.433 303.273 227.549C302.688 227.667 302.109 228.001 301.507 228.538C300.406 229.519 299.351 231.061 298.155 232.81C298.023 233.003 297.89 233.198 297.754 233.395C295.088 237.275 291.711 241.878 285.949 241.878C280.171 241.878 277.184 237.25 274.718 233.38C274.691 233.338 274.664 233.295 274.637 233.253C273.406 231.321 272.312 229.604 271.06 228.547C270.431 228.016 269.786 227.674 269.088 227.551C268.392 227.429 267.6 227.517 266.663 227.922Z" fill="#433F43" stroke="white" stroke-width="0.999999"/>
<path d="M167.663 226.922C166.775 227.305 166.19 227.933 165.854 228.751C165.512 229.583 165.417 230.636 165.572 231.859C165.883 234.309 167.178 237.315 169.193 240.248C173.234 246.131 179.994 251.481 186.949 251.481C193.895 251.481 200.269 246.142 204.121 240.257C206.04 237.325 207.296 234.311 207.679 231.846C208.067 229.343 207.54 227.618 206.203 226.904C205.474 226.514 204.845 226.433 204.273 226.549C203.688 226.667 203.109 227.001 202.507 227.538C201.406 228.519 200.351 230.061 199.155 231.81C199.023 232.003 198.89 232.198 198.754 232.395C196.088 236.275 192.711 240.878 186.949 240.878C181.171 240.878 178.184 236.25 175.718 232.38C175.691 232.338 175.664 232.295 175.637 232.253C174.406 230.321 173.312 228.604 172.06 227.547C171.431 227.016 170.786 226.674 170.088 226.551C169.392 226.429 168.6 226.517 167.663 226.922Z" fill="#433F43" stroke="white" stroke-width="0.999999"/>
</svg>
