<svg width="473" height="421" viewBox="0 0 473 421" fill="none" xmlns="http://www.w3.org/2000/svg">
<path d="M181.606 242.447C148.974 210.714 95.8729 189.648 98.5865 221.264C100.932 248.587 108.4 259.895 127.343 285.951C146.285 312.008 169.454 322.399 188.356 308.658C207.257 294.917 204.623 264.83 181.606 242.447Z" fill="#BD5B58"/>
<path d="M354.737 130.174C353.551 123.324 345.376 120.349 340.064 124.834L319.62 142.093C305.32 133.795 289.655 129 273 129C253.778 129 236.296 134.899 220.917 144.962L203.5 130.257C198.188 125.772 190.013 128.748 188.827 135.598L179.611 188.799C159.986 220.357 149 260.006 149 296.5C149 331.158 151.947 359.686 169.5 381C196.265 413.5 231.648 421 273 421C316.79 421 355 421 381.5 381C395.534 359.816 403.5 336.176 403.5 304C403.5 264.301 388.761 218.861 364.102 184.235L354.737 130.174Z" fill="#DB7874"/>
<path d="M280.318 262.075C278.732 264.428 275.268 264.428 273.682 262.075L266.044 250.735C264.254 248.078 266.158 244.5 269.362 244.5H284.638C287.842 244.5 289.746 248.078 287.956 250.735L280.318 262.075Z" fill="#FAD058"/>
<path d="M194.012 331.593C191.863 333.752 188.3 333.504 186.471 331.069L176.249 317.466C173.676 314.041 176.32 309.178 180.593 309.475L202.818 311.018C207.091 311.315 209.037 316.497 206.015 319.533L194.012 331.593Z" fill="#E29288"/>
<path d="M280.896 331.361C278.902 333.664 275.331 333.664 273.337 331.361L262.198 318.499C259.393 315.261 261.694 310.226 265.977 310.226H288.256C292.539 310.226 294.84 315.261 292.035 318.499L280.896 331.361Z" fill="#E29288"/>
<path d="M365.762 331.069C363.932 333.504 360.369 333.751 358.221 331.593L346.218 319.532C343.196 316.496 345.142 311.314 349.416 311.017L371.64 309.475C375.914 309.178 378.557 314.042 375.984 317.467L365.762 331.069Z" fill="#E29288"/>
<path d="M235.407 370.714C233.16 372.77 229.613 372.356 227.899 369.839L218.324 355.773C215.914 352.232 218.782 347.497 223.037 347.993L245.165 350.573C249.42 351.069 251.122 356.337 247.961 359.228L235.407 370.714Z" fill="#E29288"/>
<path d="M325.334 369.839C323.62 372.356 320.073 372.77 317.826 370.714L305.272 359.228C302.111 356.337 303.813 351.069 308.068 350.573L330.196 347.993C334.451 347.497 337.319 352.232 334.909 355.773L325.334 369.839Z" fill="#E29288"/>
<path d="M422.007 318.135C413.466 360.27 384.887 404.786 371.682 378.486C360.271 355.758 360.283 342.931 361.575 312.465C362.866 281.999 374.759 261.632 395.131 262.495C415.503 263.359 428.031 288.414 422.007 318.135Z" fill="#BD5B58"/>
<path d="M387.223 88.3066C389.308 90.4605 388.607 94.025 385.862 95.2211L362.214 105.526C359.033 106.912 355.596 104.154 356.266 100.754L361.947 71.8926C362.616 68.4926 366.84 67.2543 369.256 69.7497L387.223 88.3066Z" fill="#383958"/>
<path d="M393.865 107.989C392.865 109.758 390.758 110.582 388.817 109.963L370.512 104.126C366.653 102.895 366.469 97.513 370.236 96.0398L397.962 85.1947C401.728 83.7215 405.272 87.7898 403.286 91.3066L393.865 107.989Z" fill="#383958"/>
<path d="M372.126 78.4713C371.814 66.1976 357.688 59.4261 347.925 66.8705L275.749 121.904C275.336 122.219 274.945 122.549 274.576 122.893C241.986 110.856 218.215 106.326 215.143 112.734C210.628 122.155 252.568 151.65 308.819 178.615C365.07 205.579 414.332 219.801 418.848 210.38C421.896 204.022 403.78 188.517 374.385 170.819C374.427 170.291 374.441 169.753 374.427 169.206L372.126 78.4713Z" fill="#383958"/>
<path d="M327.5 268C345.725 268 360.5 252.33 360.5 233C360.5 230.041 360.154 227.169 359.502 224.425C359.009 222.348 357.073 221.022 354.943 220.883C337.513 219.745 323.004 210.538 315.718 204.142C314.045 202.672 311.616 202.226 309.771 203.474C300.589 209.689 294.5 220.59 294.5 233C294.5 252.33 309.275 268 327.5 268Z" fill="white"/>
<path d="M229 267C210.775 267 196 251.436 196 232.237C196 229.303 196.345 226.454 196.994 223.733C197.489 221.661 199.423 220.34 201.549 220.202C218.99 219.073 233.508 209.919 240.791 203.565C242.461 202.109 244.875 201.666 246.714 202.901C255.904 209.072 262 219.905 262 232.237C262 251.436 247.225 267 229 267Z" fill="white"/>
<path d="M308.663 227.922C307.775 228.305 307.19 228.933 306.854 229.751C306.512 230.583 306.417 231.636 306.572 232.859C306.883 235.309 308.178 238.315 310.193 241.248C314.234 247.131 320.994 252.481 327.949 252.481C334.895 252.481 341.269 247.142 345.121 241.257C347.04 238.325 348.296 235.311 348.679 232.846C349.067 230.343 348.54 228.618 347.203 227.904C346.474 227.514 345.845 227.433 345.273 227.549C344.688 227.667 344.109 228.001 343.507 228.538C342.406 229.519 341.351 231.061 340.155 232.81C340.023 233.002 339.89 233.198 339.754 233.395C337.088 237.275 333.711 241.878 327.949 241.878C322.171 241.878 319.184 237.25 316.718 233.38C316.691 233.338 316.664 233.295 316.637 233.253C315.406 231.321 314.312 229.604 313.06 228.547C312.431 228.016 311.786 227.674 311.088 227.551C310.392 227.429 309.6 227.517 308.663 227.922Z" fill="#433F43" stroke="white" stroke-width="0.999999"/>
<path d="M209.663 226.922C208.775 227.305 208.19 227.933 207.854 228.751C207.512 229.583 207.417 230.636 207.572 231.859C207.883 234.309 209.178 237.315 211.193 240.248C215.234 246.131 221.994 251.481 228.949 251.481C235.895 251.481 242.269 246.142 246.121 240.257C248.04 237.325 249.296 234.311 249.679 231.846C250.067 229.343 249.54 227.618 248.203 226.904C247.474 226.514 246.845 226.433 246.273 226.549C245.688 226.667 245.109 227.001 244.507 227.538C243.406 228.519 242.351 230.061 241.155 231.81C241.023 232.002 240.89 232.198 240.754 232.395C238.088 236.275 234.711 240.878 228.949 240.878C223.171 240.878 220.184 236.25 217.718 232.38C217.691 232.338 217.664 232.295 217.637 232.253C216.406 230.321 215.312 228.604 214.06 227.547C213.431 227.016 212.786 226.674 212.088 226.551C211.392 226.429 210.6 226.517 209.663 226.922Z" fill="#433F43" stroke="white" stroke-width="0.999999"/>
<mask id="path-15-inside-1" fill="white">
<path fill-rule="evenodd" clip-rule="evenodd" d="M63.6924 273.111L113.171 221.477L167.464 264.946L63.6924 273.111ZM42.1594 274.805C42.739 273.611 43.5278 272.465 44.5438 271.404L103.602 209.775C108.257 204.916 115.856 204.418 121.113 208.628L187.799 262.02C188.283 262.408 188.729 262.816 189.138 263.241L202.996 262.151C211.254 261.501 218.476 267.669 219.126 275.928L223.048 325.774C223.697 334.033 217.529 341.254 209.27 341.904L26.7172 356.267C18.4585 356.917 11.2367 350.749 10.5869 342.49L6.66511 292.644C6.01533 284.385 12.1836 277.163 20.4424 276.514L42.1594 274.805Z"/>
</mask>
<path fill-rule="evenodd" clip-rule="evenodd" d="M63.6924 273.111L113.171 221.477L167.464 264.946L63.6924 273.111ZM42.1594 274.805C42.739 273.611 43.5278 272.465 44.5438 271.404L103.602 209.775C108.257 204.916 115.856 204.418 121.113 208.628L187.799 262.02C188.283 262.408 188.729 262.816 189.138 263.241L202.996 262.151C211.254 261.501 218.476 267.669 219.126 275.928L223.048 325.774C223.697 334.033 217.529 341.254 209.27 341.904L26.7172 356.267C18.4585 356.917 11.2367 350.749 10.5869 342.49L6.66511 292.644C6.01533 284.385 12.1836 277.163 20.4424 276.514L42.1594 274.805Z" fill="#FCCE44"/>
<path d="M113.171 221.477L119.422 213.671L112.281 207.953L105.951 214.558L113.171 221.477ZM63.6924 273.111L56.4722 266.192L38.3167 285.138L64.4767 283.08L63.6924 273.111ZM167.464 264.946L168.248 274.915L193.439 272.933L173.714 257.14L167.464 264.946ZM44.5438 271.404L37.3237 264.486L37.3237 264.486L44.5438 271.404ZM42.1594 274.805L42.9438 284.774L48.6532 284.325L51.1549 279.173L42.1594 274.805ZM103.602 209.775L110.822 216.694L110.822 216.694L103.602 209.775ZM121.113 208.628L127.363 200.822L127.363 200.822L121.113 208.628ZM187.799 262.02L194.049 254.214L194.049 254.214L187.799 262.02ZM189.138 263.241L181.927 270.17L185.205 273.581L189.922 273.21L189.138 263.241ZM209.27 341.904L210.055 351.873L209.27 341.904ZM26.7172 356.267L25.9329 346.298L26.7172 356.267ZM20.4424 276.514L19.658 266.544L20.4424 276.514ZM105.951 214.558L56.4722 266.192L70.9125 280.03L120.392 228.396L105.951 214.558ZM173.714 257.14L119.422 213.671L106.921 229.283L161.214 272.752L173.714 257.14ZM64.4767 283.08L168.248 274.915L166.679 254.977L62.908 263.142L64.4767 283.08ZM37.3237 264.486C35.5979 266.287 34.2059 268.291 33.1639 270.437L51.1549 279.173C51.2722 278.932 51.4576 278.643 51.7639 278.323L37.3237 264.486ZM96.3814 202.856L37.3237 264.486L51.7639 278.323L110.822 216.694L96.3814 202.856ZM127.363 200.822C118.069 193.38 104.625 194.254 96.3814 202.856L110.822 216.694C111.89 215.579 113.643 215.457 114.863 216.434L127.363 200.822ZM194.049 254.214L127.363 200.822L114.863 216.434L181.549 269.826L194.049 254.214ZM196.348 256.312C195.635 255.57 194.868 254.869 194.049 254.214L181.549 269.826C181.698 269.946 181.823 270.061 181.927 270.17L196.348 256.312ZM189.922 273.21L203.78 272.12L202.211 252.181L188.353 253.272L189.922 273.21ZM203.78 272.12C206.533 271.903 208.94 273.959 209.157 276.712L229.095 275.144C228.012 261.379 215.976 251.098 202.211 252.181L203.78 272.12ZM209.157 276.712L213.078 326.558L233.017 324.99L229.095 275.144L209.157 276.712ZM213.078 326.558C213.295 329.311 211.239 331.718 208.486 331.935L210.055 351.873C223.819 350.79 234.1 338.754 233.017 324.99L213.078 326.558ZM208.486 331.935L25.9329 346.298L27.5016 366.236L210.055 351.873L208.486 331.935ZM25.9329 346.298C23.1799 346.515 20.7727 344.458 20.5561 341.706L0.617702 343.274C1.70067 357.039 13.737 367.319 27.5016 366.236L25.9329 346.298ZM20.5561 341.706L16.6343 291.86L-3.30408 293.428L0.617702 343.274L20.5561 341.706ZM16.6343 291.86C16.4177 289.107 18.4738 286.699 21.2267 286.483L19.658 266.544C5.89342 267.627 -4.38705 279.664 -3.30408 293.428L16.6343 291.86ZM21.2267 286.483L42.9438 284.774L41.3751 264.836L19.658 266.544L21.2267 286.483Z" fill="#85670E" mask="url(#path-15-inside-1)"/>
<path d="M31.8828 315.965C32.5661 324.65 39.0089 328.513 44.6076 328.072C51.4265 327.536 53.2696 322.046 53.2696 322.046C53.2696 322.046 49.9658 319.526 48.218 317.966C47.8987 318.497 46.3285 320.57 44.0316 320.751C42.2371 320.892 39.5732 319.621 39.24 315.386C38.9266 311.403 40.3504 309.304 42.2167 309.158C45.4467 308.904 46.4553 312.544 46.4553 312.544L52.177 311.371C52.177 311.371 51.9187 302.58 51.6533 302.421C50.0338 301.573 45.9368 301.823 45.9312 301.751L45.703 303.9C45.703 303.9 44.0771 302.511 41.3495 302.726C36.325 303.121 31.1684 306.885 31.8828 315.965ZM61.4988 326.274C61.5298 326.669 80.2385 324.872 80.3462 324.863C80.4539 324.855 79.5894 315.245 79.4761 315.182C79.3628 315.118 74.6436 314.804 74.6549 314.947C74.6662 315.091 73.8292 319.598 73.7989 319.673C73.7687 319.747 70.1495 320.104 70.1136 320.107C70.0777 320.11 69.4008 308.752 69.5564 306.14C69.5564 306.14 72.2585 305.602 72.4682 305.514C72.6779 305.425 72.0172 300.241 72.0144 300.205C72.0116 300.169 60.1428 300.778 59.9359 300.902C59.594 301.146 60.4123 306.498 60.4869 306.529C60.5615 306.559 62.6979 306.174 62.712 306.353C62.7649 309.78 63.5431 320.588 63.477 320.666C63.4108 320.743 61.0809 320.962 61.0147 321.04C60.9486 321.117 61.4677 325.879 61.4988 326.274ZM87.0557 311.372C87.8039 320.882 93.2467 324.426 100.46 323.859C108.571 323.22 111.572 316.376 111.035 309.557C110.383 301.267 105.096 296.952 98.3491 297.483C91.6019 298.014 86.3074 301.861 87.0557 311.372ZM99.8239 316.686C97.5629 316.864 94.8433 315.345 94.5129 311.146C94.2108 307.306 95.2136 304.446 98.8025 304.164C101.817 303.927 103.263 306.702 103.554 310.398C103.907 314.885 102.049 316.511 99.8239 316.686ZM119.94 321.965C119.94 321.965 125.2 321.804 125.385 321.861C125.421 321.859 125.379 320.417 125.389 319.622C125.975 320.19 127.414 321.485 131.11 321.194C134.699 320.912 137.976 317.585 137.657 313.529C137.31 309.115 134.468 307.424 131.127 305.81C128.347 304.439 125.594 303.862 125.492 302.57C125.379 301.134 126.681 300.707 127.327 300.656C128.44 300.568 129.722 301.262 130.066 303.329C130.077 303.473 135.678 303.068 135.636 302.53C135.546 301.381 135.611 294.407 135.426 294.349C133.608 293.734 129.887 294.171 129.887 294.171L129.771 295.913C129.11 295.315 127.756 294.628 125.674 294.791C120.865 295.17 118.151 298.308 118.431 301.861C118.834 306.993 122.065 308.581 125.392 310.016C127.638 311.031 129.986 311.497 130.147 313.542C130.232 314.619 129.344 315.267 128.303 315.349C127.154 315.439 125.581 314.263 124.743 311.873C124.017 311.822 121.549 312.124 119.151 312.855C119.298 314.721 119.806 321.181 119.94 321.965ZM147.036 319.652C147.171 319.533 166.681 318.287 166.75 318.246C166.819 318.204 166.762 309.217 166.754 309.109C166.745 309.002 160.847 308.852 160.853 308.924C160.859 308.995 160.139 312.699 160.147 312.807C160.156 312.915 155.83 313.472 155.819 313.328C155.808 313.184 155.458 308.734 155.521 308.621C155.584 308.508 159.413 308.062 159.518 308.018C159.623 307.973 158.957 303.187 158.949 303.079C158.94 302.971 155.346 303.182 155.235 303.154C155.125 303.127 154.74 299.149 154.839 299.033C154.938 298.917 158.891 298.678 158.936 298.783C158.98 298.888 159.324 301.424 159.578 301.441C159.832 301.457 164.746 301.034 164.738 300.926C164.729 300.819 164.775 293.593 163.826 292.548C163.826 292.548 144.799 293.973 144.747 294.23C144.695 294.487 145.66 299.863 145.66 299.863C145.66 299.863 147.898 299.398 148.047 299.459C148.196 299.519 149.006 313.936 149.006 313.936C149.006 313.936 146.993 314.059 146.795 314.291C146.596 314.523 146.901 319.771 147.036 319.652ZM175.375 317.495C175.584 317.406 181.598 317.655 185.295 317.365C191.576 316.87 197.448 314.856 196.533 303.228C195.477 289.805 186.373 291.135 181.017 291.448C176.197 291.683 172.963 292.804 172.725 293.003C172.488 293.203 173.956 299.009 174.028 299.004C174.1 298.998 176.844 298.529 176.844 298.529L177.423 310.942C177.423 310.942 174.817 311.328 174.616 311.524C174.415 311.721 175.416 317.564 175.375 317.495ZM184.129 310.812C183.72 308.822 183.45 301.26 183.387 298.159C184.883 297.897 188.664 296.841 189.234 304.091C189.674 309.689 187.065 310.942 184.129 310.812Z" fill="#785C08" fill-opacity="0.9"/>
</svg>
