<svg width="440" height="424" viewBox="0 0 440 424" fill="none" xmlns="http://www.w3.org/2000/svg">
<path d="M147.606 245.447C114.974 213.714 61.8729 192.648 64.5865 224.264C66.9316 251.587 74.4005 262.895 93.3427 288.951C112.285 315.008 135.454 325.399 154.356 311.658C173.257 297.917 170.623 267.83 147.606 245.447Z" fill="#BD5B58"/>
<path d="M320.737 133.174C319.551 126.324 311.376 123.349 306.064 127.834L285.62 145.093C271.32 136.795 255.655 132 239 132C219.778 132 202.296 137.899 186.917 147.962L169.5 133.257C164.188 128.772 156.013 131.748 154.827 138.598L145.611 191.799C125.986 223.357 115 263.006 115 299.5C115 334.158 117.947 362.686 135.5 384C162.265 416.5 197.648 424 239 424C282.79 424 321 424 347.5 384C361.534 362.816 369.5 339.176 369.5 307C369.5 267.301 354.761 221.861 330.102 187.235L320.737 133.174Z" fill="#DB7874"/>
<ellipse cx="194.5" cy="235" rx="33" ry="35" fill="white"/>
<ellipse cx="293.5" cy="236" rx="33" ry="35" fill="white"/>
<path d="M246.318 265.075C244.732 267.428 241.268 267.428 239.682 265.075L232.044 253.735C230.254 251.078 232.158 247.5 235.362 247.5H250.638C253.842 247.5 255.746 251.078 253.956 253.735L246.318 265.075Z" fill="#FAD058"/>
<path d="M160.012 334.593C157.863 336.752 154.3 336.504 152.471 334.069L142.249 320.466C139.676 317.041 142.32 312.178 146.593 312.475L168.818 314.018C173.091 314.315 175.037 319.497 172.015 322.533L160.012 334.593Z" fill="#E29288"/>
<path d="M246.896 334.361C244.902 336.664 241.331 336.664 239.337 334.361L228.198 321.499C225.393 318.261 227.694 313.226 231.977 313.226H254.256C258.539 313.226 260.84 318.261 258.035 321.499L246.896 334.361Z" fill="#E29288"/>
<path d="M331.762 334.069C329.932 336.504 326.369 336.751 324.221 334.593L312.218 322.532C309.196 319.496 311.142 314.314 315.416 314.017L337.64 312.475C341.914 312.178 344.557 317.042 341.984 320.467L331.762 334.069Z" fill="#E29288"/>
<path d="M201.407 373.714C199.16 375.77 195.613 375.356 193.899 372.839L184.324 358.773C181.914 355.232 184.782 350.497 189.037 350.993L211.165 353.573C215.42 354.069 217.122 359.337 213.961 362.228L201.407 373.714Z" fill="#E29288"/>
<path d="M291.334 372.839C289.62 375.356 286.073 375.77 283.826 373.714L271.272 362.228C268.111 359.337 269.813 354.069 274.068 353.573L296.196 350.993C300.451 350.497 303.319 355.232 300.909 358.773L291.334 372.839Z" fill="#E29288"/>
<path d="M388.007 321.135C379.466 363.27 350.887 407.786 337.682 381.486C326.271 358.758 326.283 345.931 327.575 315.465C328.866 284.999 340.759 264.632 361.131 265.495C381.503 266.359 394.031 291.414 388.007 321.135Z" fill="#BD5B58"/>
<path d="M354.223 88.3066C356.308 90.4605 355.607 94.025 352.862 95.2211L329.214 105.526C326.033 106.912 322.596 104.154 323.266 100.754L328.947 71.8926C329.616 68.4926 333.84 67.2543 336.256 69.7497L354.223 88.3066Z" fill="#383958"/>
<path d="M360.865 107.989C359.865 109.758 357.758 110.582 355.817 109.963L337.512 104.126C333.653 102.895 333.469 97.513 337.236 96.0398L364.962 85.1947C368.729 83.7215 372.272 87.7898 370.286 91.3066L360.865 107.989Z" fill="#383958"/>
<path d="M339.126 78.4713C338.814 66.1976 324.688 59.4261 314.925 66.8705L242.749 121.904C242.336 122.219 241.945 122.549 241.576 122.893C208.986 110.856 185.215 106.326 182.143 112.734C177.628 122.155 219.568 151.65 275.819 178.615C332.07 205.579 381.332 219.801 385.848 210.38C388.896 204.022 370.78 188.517 341.385 170.819C341.427 170.291 341.441 169.753 341.427 169.206L339.126 78.4713Z" fill="#383958"/>
<g filter="url(#glowing_star_filter)">
<path d="M74.367 148.106L79.6212 165.612C79.8628 166.426 80.315 167.167 80.9387 167.772C81.5623 168.377 82.3386 168.827 83.2002 169.083L101.763 174.616C102.754 174.912 103.629 175.462 104.291 176.205C104.952 176.948 105.373 177.854 105.505 178.82C105.637 179.786 105.476 180.774 105.039 181.672C104.603 182.571 103.908 183.343 103.034 183.903L86.6692 194.385C85.9101 194.871 85.2846 195.519 84.8466 196.274C84.4085 197.028 84.171 197.866 84.1545 198.715L83.8083 217.016C83.7901 217.993 83.479 218.953 82.9101 219.786C82.3413 220.62 81.5375 221.294 80.5896 221.732C79.6417 222.171 78.5875 222.356 77.5464 222.268C76.5053 222.179 75.5188 221.82 74.6985 221.231L59.3305 210.185C58.6174 209.671 57.7764 209.331 56.8804 209.193C55.9844 209.055 55.0604 209.124 54.1886 209.394L35.4216 215.184C34.4194 215.493 33.3514 215.536 32.3384 215.309C31.3254 215.082 30.4078 214.593 29.6896 213.898C28.9713 213.203 28.481 212.33 28.2741 211.377C28.0673 210.424 28.1521 209.43 28.5189 208.507L35.3862 191.208C35.7044 190.405 35.8104 189.548 35.6952 188.708C35.58 187.869 35.2471 187.073 34.7251 186.39L23.464 171.668C22.8628 170.882 22.5138 169.948 22.4566 168.974C22.3993 168 22.6361 167.023 23.1401 166.155C23.6441 165.287 24.3952 164.561 25.3086 164.06C26.2219 163.56 27.261 163.304 28.3084 163.322L47.9201 163.66C48.8309 163.676 49.7376 163.485 50.5617 163.103C51.3858 162.721 52.1025 162.159 52.6499 161.467L64.4668 146.586C65.0976 145.791 65.9501 145.171 66.9279 144.796C67.9057 144.421 68.9697 144.306 69.9997 144.465C71.0297 144.623 71.9846 145.047 72.7564 145.691C73.5281 146.334 74.0861 147.171 74.367 148.106Z" fill="#FCCE44"/>
</g>
<path d="M312.64 245.076C313.528 244.693 314.113 244.065 314.45 243.247C314.792 242.415 314.887 241.362 314.732 240.139C314.423 237.689 313.129 234.683 311.115 231.749C307.076 225.864 300.318 220.511 293.363 220.508C286.417 220.506 280.041 225.843 276.187 231.726C274.267 234.657 273.01 237.671 272.626 240.136C272.236 242.639 272.763 244.364 274.1 245.079C274.829 245.469 275.457 245.55 276.03 245.434C276.614 245.317 277.194 244.982 277.796 244.446C278.898 243.465 279.953 241.923 281.15 240.175C281.282 239.983 281.415 239.788 281.551 239.591C284.218 235.711 287.597 231.11 293.359 231.112C299.137 231.114 302.123 235.744 304.587 239.614C304.614 239.657 304.641 239.699 304.668 239.741C305.898 241.673 306.991 243.391 308.243 244.449C308.871 244.98 309.517 245.323 310.215 245.446C310.91 245.568 311.702 245.48 312.64 245.076Z" fill="#433F43" stroke="white" stroke-width="0.999999"/>
<path d="M212.64 245.076C213.528 244.693 214.113 244.065 214.45 243.247C214.792 242.415 214.887 241.362 214.732 240.139C214.423 237.689 213.129 234.683 211.115 231.749C207.076 225.864 200.318 220.511 193.363 220.508C186.417 220.506 180.041 225.843 176.187 231.726C174.267 234.657 173.01 237.671 172.626 240.136C172.236 242.639 172.763 244.364 174.1 245.079C174.829 245.469 175.457 245.55 176.03 245.434C176.614 245.317 177.194 244.982 177.796 244.446C178.898 243.465 179.953 241.923 181.15 240.175C181.282 239.983 181.415 239.788 181.551 239.591C184.218 235.711 187.597 231.11 193.359 231.112C199.137 231.114 202.123 235.744 204.587 239.614C204.614 239.657 204.641 239.699 204.668 239.741C205.898 241.673 206.991 243.391 208.243 244.449C208.871 244.98 209.517 245.323 210.215 245.446C210.91 245.568 211.702 245.48 212.64 245.076Z" fill="#433F43" stroke="white" stroke-width="0.999999"/>
<defs>
<filter id="glowing_star_filter" x="2.44818" y="124.396" width="123.102" height="117.894" filterUnits="userSpaceOnUse" color-interpolation-filters="sRGB">
<feFlood flood-opacity="0" result="BackgroundImageFix"/>
<feColorMatrix in="SourceAlpha" type="matrix" values="0 0 0 0 0 0 0 0 0 0 0 0 0 0 0 0 0 0 127 0"/>
<feOffset/>
<feGaussianBlur stdDeviation="10"/>
<feColorMatrix type="matrix" values="0 0 0 0 0.980392 0 0 0 0 0.815686 0 0 0 0 0.345098 0 0 0 1 0"/>
<feBlend mode="normal" in2="BackgroundImageFix" result="effect1_dropShadow"/>
<feBlend mode="normal" in="SourceGraphic" in2="effect1_dropShadow" result="shape"/>
</filter>
</defs>
</svg>
