<svg width="440" height="379" viewBox="0 0 440 379" fill="none" xmlns="http://www.w3.org/2000/svg">
<path d="M147.606 200.447C114.974 168.714 61.8729 147.648 64.5865 179.264C66.9316 206.587 74.4005 217.895 93.3427 243.951C112.285 270.008 135.454 280.399 154.356 266.658C173.257 252.917 170.623 222.83 147.606 200.447Z" fill="#BD5B58"/>
<path d="M320.737 88.1744C319.551 81.3241 311.376 78.3486 306.064 82.8336L285.62 100.093C271.32 91.7946 255.655 87.0001 239 87.0001C219.778 87.0001 202.296 92.8992 186.917 102.962L169.5 88.2574C164.188 83.7724 156.013 86.7478 154.827 93.5982L145.611 146.799C125.986 178.357 115 218.006 115 254.5C115 289.158 117.947 317.686 135.5 339C162.265 371.5 197.648 379 239 379C282.79 379 321 379 347.5 339C361.534 317.816 369.5 294.176 369.5 262C369.5 222.301 354.761 176.861 330.102 142.235L320.737 88.1744Z" fill="#DB7874"/>
<ellipse cx="194.5" cy="190" rx="33" ry="35" fill="white"/>
<ellipse cx="293.5" cy="191" rx="33" ry="35" fill="white"/>
<path d="M246.318 220.075C244.732 222.428 241.268 222.428 239.682 220.075L232.044 208.735C230.254 206.078 232.158 202.5 235.362 202.5H250.638C253.842 202.5 255.746 206.078 253.956 208.735L246.318 220.075Z" fill="#FAD058"/>
<path d="M160.012 289.593C157.863 291.752 154.3 291.504 152.471 289.069L142.249 275.466C139.676 272.041 142.32 267.178 146.593 267.475L168.818 269.018C173.091 269.315 175.037 274.497 172.015 277.533L160.012 289.593Z" fill="#E29288"/>
<path d="M246.896 289.361C244.902 291.664 241.331 291.664 239.337 289.361L228.198 276.499C225.393 273.261 227.694 268.226 231.977 268.226H254.256C258.539 268.226 260.84 273.261 258.035 276.499L246.896 289.361Z" fill="#E29288"/>
<path d="M331.762 289.069C329.932 291.504 326.369 291.751 324.221 289.593L312.218 277.532C309.196 274.496 311.142 269.314 315.416 269.017L337.64 267.475C341.914 267.178 344.557 272.042 341.984 275.467L331.762 289.069Z" fill="#E29288"/>
<path d="M201.407 328.714C199.16 330.77 195.613 330.356 193.899 327.839L184.324 313.773C181.914 310.232 184.782 305.497 189.037 305.993L211.165 308.573C215.42 309.069 217.122 314.337 213.961 317.228L201.407 328.714Z" fill="#E29288"/>
<path d="M291.334 327.839C289.62 330.356 286.073 330.77 283.826 328.714L271.272 317.228C268.111 314.337 269.813 309.069 274.068 308.573L296.196 305.993C300.451 305.497 303.319 310.232 300.909 313.773L291.334 327.839Z" fill="#E29288"/>
<path d="M388.007 276.135C379.466 318.27 350.887 362.786 337.682 336.486C326.271 313.758 326.283 300.931 327.575 270.465C328.866 239.999 340.759 219.632 361.131 220.495C381.503 221.359 394.031 246.414 388.007 276.135Z" fill="#BD5B58"/>
<path d="M354.223 43.3066C356.308 45.4605 355.607 49.025 352.862 50.2211L329.214 60.526C326.033 61.9117 322.596 59.1544 323.266 55.7544L328.947 26.8926C329.616 23.4926 333.84 22.2543 336.256 24.7497L354.223 43.3066Z" fill="#383958"/>
<path d="M360.865 62.9887C359.865 64.758 357.758 65.5822 355.817 64.9631L337.512 59.126C333.653 57.8955 333.469 52.513 337.236 51.0398L364.962 40.1947C368.729 38.7215 372.272 42.7898 370.286 46.3066L360.865 62.9887Z" fill="#383958"/>
<path d="M339.126 33.4713C338.814 21.1976 324.688 14.4261 314.925 21.8705L242.749 76.9043C242.336 77.2192 241.945 77.5493 241.576 77.8927C208.986 65.8558 185.215 61.3264 182.143 67.7338C177.628 77.1546 219.568 106.65 275.819 133.615C332.07 160.579 381.332 174.801 385.848 165.38C388.896 159.022 370.78 143.517 341.385 125.819C341.427 125.291 341.441 124.753 341.427 124.206L339.126 33.4713Z" fill="#383958"/>
<g filter="url(#filter0_d)">
<path d="M74.367 103.106L79.6212 120.612C79.8628 121.426 80.315 122.167 80.9387 122.772C81.5623 123.377 82.3386 123.827 83.2002 124.083L101.763 129.616C102.754 129.912 103.629 130.462 104.291 131.205C104.952 131.948 105.373 132.854 105.505 133.82C105.637 134.786 105.476 135.774 105.039 136.672C104.603 137.571 103.908 138.343 103.034 138.903L86.6692 149.385C85.9101 149.871 85.2846 150.519 84.8466 151.274C84.4085 152.028 84.171 152.866 84.1545 153.715L83.8083 172.016C83.7901 172.993 83.479 173.953 82.9101 174.786C82.3413 175.62 81.5375 176.294 80.5896 176.732C79.6417 177.171 78.5875 177.356 77.5464 177.268C76.5053 177.179 75.5188 176.82 74.6985 176.231L59.3305 165.185C58.6174 164.671 57.7764 164.331 56.8804 164.193C55.9844 164.055 55.0604 164.124 54.1886 164.394L35.4216 170.184C34.4194 170.493 33.3514 170.536 32.3384 170.309C31.3254 170.082 30.4078 169.593 29.6896 168.898C28.9713 168.203 28.481 167.33 28.2741 166.377C28.0673 165.424 28.1521 164.43 28.5189 163.507L35.3862 146.208C35.7044 145.405 35.8104 144.548 35.6952 143.708C35.58 142.869 35.2471 142.073 34.7251 141.39L23.464 126.668C22.8628 125.882 22.5138 124.948 22.4566 123.974C22.3993 123 22.6361 122.023 23.1401 121.155C23.6441 120.287 24.3952 119.561 25.3086 119.06C26.2219 118.56 27.261 118.304 28.3084 118.322L47.9201 118.66C48.8309 118.676 49.7376 118.485 50.5617 118.103C51.3858 117.721 52.1025 117.159 52.6499 116.467L64.4668 101.586C65.0976 100.791 65.9501 100.171 66.9279 99.7962C67.9057 99.4213 68.9697 99.3064 69.9997 99.4646C71.0297 99.6227 71.9846 100.047 72.7564 100.691C73.5281 101.334 74.0861 102.171 74.367 103.106Z" fill="#FCCE44"/>
</g>
<path d="M312.64 200.076C313.528 199.693 314.113 199.065 314.45 198.247C314.792 197.415 314.887 196.362 314.732 195.139C314.423 192.689 313.129 189.683 311.115 186.749C307.076 180.864 300.318 175.511 293.363 175.508C286.417 175.506 280.041 180.843 276.187 186.726C274.267 189.657 273.01 192.671 272.626 195.136C272.236 197.639 272.763 199.364 274.1 200.079C274.829 200.469 275.457 200.55 276.03 200.434C276.614 200.317 277.194 199.982 277.796 199.446C278.898 198.465 279.953 196.923 281.15 195.175C281.282 194.983 281.415 194.788 281.551 194.591C284.218 190.711 287.597 186.11 293.359 186.112C299.137 186.114 302.123 190.744 304.587 194.614C304.614 194.657 304.641 194.699 304.668 194.741C305.898 196.673 306.991 198.391 308.243 199.449C308.871 199.98 309.517 200.323 310.215 200.446C310.91 200.568 311.702 200.48 312.64 200.076Z" fill="#433F43" stroke="white" stroke-width="0.999999"/>
<path d="M212.64 200.076C213.528 199.693 214.113 199.065 214.45 198.247C214.792 197.415 214.887 196.362 214.732 195.139C214.423 192.689 213.129 189.683 211.115 186.749C207.076 180.864 200.318 175.511 193.363 175.508C186.417 175.506 180.041 180.843 176.187 186.726C174.267 189.657 173.01 192.671 172.626 195.136C172.236 197.639 172.763 199.364 174.1 200.079C174.829 200.469 175.457 200.55 176.03 200.434C176.614 200.317 177.194 199.982 177.796 199.446C178.898 198.465 179.953 196.923 181.15 195.175C181.282 194.983 181.415 194.788 181.551 194.591C184.218 190.711 187.597 186.11 193.359 186.112C199.137 186.114 202.123 190.744 204.587 194.614C204.614 194.657 204.641 194.699 204.668 194.741C205.898 196.673 206.991 198.391 208.243 199.449C208.871 199.98 209.517 200.323 210.215 200.446C210.91 200.568 211.702 200.48 212.64 200.076Z" fill="#433F43" stroke="white" stroke-width="0.999999"/>
<defs>
<filter id="filter0_d" x="2.44818" y="79.3955" width="123.102" height="117.894" filterUnits="userSpaceOnUse" color-interpolation-filters="sRGB">
<feFlood flood-opacity="0" result="BackgroundImageFix"/>
<feColorMatrix in="SourceAlpha" type="matrix" values="0 0 0 0 0 0 0 0 0 0 0 0 0 0 0 0 0 0 127 0"/>
<feOffset/>
<feGaussianBlur stdDeviation="10"/>
<feColorMatrix type="matrix" values="0 0 0 0 0.980392 0 0 0 0 0.815686 0 0 0 0 0.345098 0 0 0 1 0"/>
<feBlend mode="normal" in2="BackgroundImageFix" result="effect1_dropShadow"/>
<feBlend mode="normal" in="SourceGraphic" in2="effect1_dropShadow" result="shape"/>
</filter>
</defs>
</svg>
