<svg height="48" viewBox="0 0 205 61" fill="none" xmlns="http://www.w3.org/2000/svg">
<g filter="url(#logo_drop_shadow_filter)">
<mask id="path-1-outside-1" maskUnits="userSpaceOnUse" x="0.922485" y="0.356934" width="196" height="52" fill="black">
<rect fill="white" x="0.922485" y="0.356934" width="196" height="52"/>
<path d="M70.519 12.6084C73.592 12.4804 74.6215 10.0487 74.5194 7.61911C74.4191 5.23451 72.0726 3.25901 69.6323 3.36069C67.2371 3.46049 65.234 5.3468 65.4002 8.22443C65.6098 11.0552 67.4008 12.7383 70.519 12.6084Z"/>
<path d="M64.0802 38.2067C64.035 38.2086 79.5412 37.6977 79.7577 37.4634L79.4403 32.068L75.7101 31.6375L75.0822 16.7C71.9789 16.1082 62.4625 16.9554 62.472 17.1804C62.4814 17.4054 63.4071 23.2711 63.4523 23.2692C63.4695 23.2685 63.6087 23.2545 63.8232 23.2328C64.7306 23.1413 66.9857 22.9139 67.0619 22.9836L67.4006 32.119L63.5217 32.4609C63.5976 35.3423 64.0802 38.2067 64.0802 38.2067Z"/>
<path fill-rule="evenodd" clip-rule="evenodd" d="M29.1063 47.545C21.8681 47.585 18.9609 42.613 18.1267 39.657C11.0381 39.299 6.01701 33.468 4.35962 25.3482C2.42298 15.8603 7.06468 8.07425 15.442 6.3793C23.8194 4.68435 31.5213 8.27271 33.8542 19.7023C35.8449 29.455 33.1921 35.0005 27.3816 37.7385C27.4113 37.805 27.4408 37.8736 27.4708 37.9436C27.7834 38.6713 28.1549 39.5362 29.4983 39.516C31.033 39.5731 32.9625 38.1718 34.0414 37.1263C34.0414 37.1263 37.6045 41.9197 37.6531 43.2884C37.1089 45.1447 33.2396 47.444 29.1063 47.545ZM13.1283 23.9876C13.984 28.1799 16.7104 32.0397 21.1782 31.0898C25.513 30.1669 26.0688 26.3323 25.195 22.0517C24.1412 16.8885 21.9932 13.601 17.8266 14.4439C13.3942 15.3407 12.2906 19.8835 13.1283 23.9876Z"/>
<path d="M46.5247 43.2109C41.9286 42.812 37.2507 40.2363 38.0677 30.905L38.5605 25.7947L36.6837 25.451C36.6837 25.451 36.3634 20.8126 36.8046 19.4044L47.1861 19.5821C47.1861 19.5821 46.9229 22.5879 46.2845 30.3977C46.0213 33.4034 46.9241 35.0187 49.087 35.2064C50.8443 35.3589 52.1769 33.6213 52.4126 30.9296L52.6465 27.7405L49.6843 27.3478L49.8816 20.9461L61.131 21.0636L59.7837 36.4512C59.866 36.5487 62.5264 37.2768 62.6165 37.2847C62.6616 37.2886 62.0881 43.8384 62.0684 44.0627C62.0488 44.287 53.5736 43.5966 53.5736 43.5966L52.9804 41.5562C52.9804 41.5562 50.3548 43.5433 46.5247 43.2109Z"/>
<path d="M102.792 43.232L81.4519 41.7223C81.4068 41.7191 80.6537 35.7518 80.7504 35.6684C80.7682 35.6384 82.2938 34.3972 84.2745 32.7858L84.2769 32.7839L84.2784 32.7826L84.2793 32.7819C88.0249 29.7347 93.3938 25.3668 93.2758 25.3584C93.2212 25.3546 92.8267 25.2853 92.3003 25.1929C91.087 24.98 89.173 24.644 89.1056 24.7022C89.0122 24.7408 88.4042 27.5419 88.4042 27.5419C88.4042 27.5419 82.0747 26.6427 81.7266 26.4375C81.3753 26.2772 82.3941 18.9906 82.3941 18.9906C82.3941 18.9906 103.103 20.4556 103.093 20.5904C103.09 20.6291 103.141 21.1305 103.211 21.8262L103.211 21.8272C103.384 23.5517 103.677 26.4684 103.579 26.4936C103.437 26.5739 91.6201 35.8504 91.7555 35.86C91.7595 35.8603 91.7721 35.8616 91.7927 35.8637L91.8754 35.8724L92.0904 35.8955C93.1439 36.0085 96.3147 36.3489 96.3961 36.2786C96.4144 36.2479 96.4553 35.9001 96.5065 35.4647C96.5996 34.6737 96.7267 33.5933 96.814 33.5995C96.9043 33.6058 103.395 34.1553 103.598 34.4857C103.849 34.7743 102.792 43.232 102.792 43.232Z"/>
<path fill-rule="evenodd" clip-rule="evenodd" d="M114.28 38.2412C118.722 38.1555 120.408 35.2604 120.408 35.2604C120.408 35.2604 120.884 37.3331 120.887 37.4631C120.89 37.5932 130.647 37.5784 130.778 37.5758C130.952 37.5725 130.84 31.8062 130.747 31.5044C130.699 31.2122 127.371 31.3067 127.101 31.3143L127.084 31.3148C127.084 31.3148 126.69 22.2577 126.819 22.1684C126.904 22.08 129.94 21.3709 130.027 21.3692C130.056 21.3686 129.883 18.9162 129.763 17.2098C129.702 16.3506 129.655 15.6805 129.653 15.6079C129.649 15.3911 120.423 15.8728 120.423 15.8728L120.465 18.0406C120.465 18.0406 117.68 15.9257 113.978 15.9972C109.536 16.0829 104.271 18.6134 104.431 26.851C104.605 35.7823 110.274 38.3186 114.28 38.2412ZM115.662 30.8847C113.92 30.9183 112.19 29.3469 112.142 26.8323C112.091 24.2309 113.498 22.6857 115.676 22.6437C117.461 22.6093 118.935 24.4892 118.98 26.787C119.027 29.215 117.622 30.8469 115.662 30.8847Z"/>
<path d="M145.942 45.3532C145.727 45.5727 131.222 45.6233 131.266 45.6227C131.266 45.6227 130.877 42.4184 130.886 39.6428L133.758 39.4335L133.674 29.2432C133.604 29.1758 132.08 29.3146 131.392 29.3773C131.206 29.3943 131.081 29.4056 131.062 29.4059C131.019 29.4064 130.297 23.9945 130.294 23.7777C130.292 23.5609 139.073 22.1505 139.073 22.1505L140.504 25.0816C140.504 25.0816 141.958 22.9819 145.66 22.9358C149.58 22.8869 152.58 25.9286 152.54 26.2327C152.463 27.0143 148.132 32.4458 147.999 32.3173C147.426 31.7607 146.192 30.6051 144.668 30.6241C142.403 30.6523 140.901 32.4491 140.934 35.0508C140.969 37.8692 141.334 39.209 141.334 39.209L145.784 39.7174L145.942 45.3532Z"/>
<path fill-rule="evenodd" clip-rule="evenodd" d="M162.872 41.254C167.301 41.6089 168.497 39.7906 168.497 39.7906L168.892 41.3884C169.091 41.6219 179.148 42.08 179.105 42.0765C179.105 42.0765 179.398 38.4457 179.579 35.6759L176.123 35.1813L178.051 10.7995C177.801 10.6489 166.719 9.89124 166.806 9.8982C166.819 9.89919 166.755 10.3152 166.663 10.9158C166.432 12.43 166.022 15.1176 166.196 15.2873C166.359 15.4309 169.49 16.1604 169.49 16.1604L169.126 20.6557C169.126 20.6557 167.779 18.9381 164.089 18.6423C159.661 18.2873 154.413 19.955 153.686 28.9456C152.966 37.8497 158.878 40.9338 162.872 41.254ZM164.17 34.3973C162.477 34.2616 161.427 32.6548 161.657 29.802C161.892 26.906 162.993 25.1671 165.077 25.3342C166.771 25.4699 167.768 27.725 167.558 30.3185C167.338 33.0416 166.037 34.5469 164.17 34.3973Z"/>
<path d="M188.27 33.7203C187.411 33.7763 184.297 33.6658 184.109 33.4057C183.781 32.9378 180.495 20.6437 180.869 13.4483C181.801 12.9452 190.133 13.3746 193.361 14.1923C192.756 25.835 188.774 33.6962 188.27 33.7203Z"/>
<path d="M186.009 49.1355C182.546 48.957 180.74 46.9099 180.803 43.7568C180.919 40.5562 183.332 38.6764 185.992 38.8135C188.702 38.9532 191.092 41.3811 190.954 44.0295C190.814 46.7277 189.421 49.3114 186.009 49.1355Z"/>
</mask>
<path d="M70.519 12.6084C73.592 12.4804 74.6215 10.0487 74.5194 7.61911C74.4191 5.23451 72.0726 3.25901 69.6323 3.36069C67.2371 3.46049 65.234 5.3468 65.4002 8.22443C65.6098 11.0552 67.4008 12.7383 70.519 12.6084Z" fill="#383958"/>
<path d="M64.0802 38.2067C64.035 38.2086 79.5412 37.6977 79.7577 37.4634L79.4403 32.068L75.7101 31.6375L75.0822 16.7C71.9789 16.1082 62.4625 16.9554 62.472 17.1804C62.4814 17.4054 63.4071 23.2711 63.4523 23.2692C63.4695 23.2685 63.6087 23.2545 63.8232 23.2328C64.7306 23.1413 66.9857 22.9139 67.0619 22.9836L67.4006 32.119L63.5217 32.4609C63.5976 35.3423 64.0802 38.2067 64.0802 38.2067Z" fill="#383958"/>
<path fill-rule="evenodd" clip-rule="evenodd" d="M29.1063 47.545C21.8681 47.585 18.9609 42.613 18.1267 39.657C11.0381 39.299 6.01701 33.468 4.35962 25.3482C2.42298 15.8603 7.06468 8.07425 15.442 6.3793C23.8194 4.68435 31.5213 8.27271 33.8542 19.7023C35.8449 29.455 33.1921 35.0005 27.3816 37.7385C27.4113 37.805 27.4408 37.8736 27.4708 37.9436C27.7834 38.6713 28.1549 39.5362 29.4983 39.516C31.033 39.5731 32.9625 38.1718 34.0414 37.1263C34.0414 37.1263 37.6045 41.9197 37.6531 43.2884C37.1089 45.1447 33.2396 47.444 29.1063 47.545ZM13.1283 23.9876C13.984 28.1799 16.7104 32.0397 21.1782 31.0898C25.513 30.1669 26.0688 26.3323 25.195 22.0517C24.1412 16.8885 21.9932 13.601 17.8266 14.4439C13.3942 15.3407 12.2906 19.8835 13.1283 23.9876Z" fill="#383958"/>
<path d="M46.5247 43.2109C41.9286 42.812 37.2507 40.2363 38.0677 30.905L38.5605 25.7947L36.6837 25.451C36.6837 25.451 36.3634 20.8126 36.8046 19.4044L47.1861 19.5821C47.1861 19.5821 46.9229 22.5879 46.2845 30.3977C46.0213 33.4034 46.9241 35.0187 49.087 35.2064C50.8443 35.3589 52.1769 33.6213 52.4126 30.9296L52.6465 27.7405L49.6843 27.3478L49.8816 20.9461L61.131 21.0636L59.7837 36.4512C59.866 36.5487 62.5264 37.2768 62.6165 37.2847C62.6616 37.2886 62.0881 43.8384 62.0684 44.0627C62.0488 44.287 53.5736 43.5966 53.5736 43.5966L52.9804 41.5562C52.9804 41.5562 50.3548 43.5433 46.5247 43.2109Z" fill="#383958"/>
<path d="M102.792 43.232L81.4519 41.7223C81.4068 41.7191 80.6537 35.7518 80.7504 35.6684C80.7682 35.6384 82.2938 34.3972 84.2745 32.7858L84.2769 32.7839L84.2784 32.7826L84.2793 32.7819C88.0249 29.7347 93.3938 25.3668 93.2758 25.3584C93.2212 25.3546 92.8267 25.2853 92.3003 25.1929C91.087 24.98 89.173 24.644 89.1056 24.7022C89.0122 24.7408 88.4042 27.5419 88.4042 27.5419C88.4042 27.5419 82.0747 26.6427 81.7266 26.4375C81.3753 26.2772 82.3941 18.9906 82.3941 18.9906C82.3941 18.9906 103.103 20.4556 103.093 20.5904C103.09 20.6291 103.141 21.1305 103.211 21.8262L103.211 21.8272C103.384 23.5517 103.677 26.4684 103.579 26.4936C103.437 26.5739 91.6201 35.8504 91.7555 35.86C91.7595 35.8603 91.7721 35.8616 91.7927 35.8637L91.8754 35.8724L92.0904 35.8955C93.1439 36.0085 96.3147 36.3489 96.3961 36.2786C96.4144 36.2479 96.4553 35.9001 96.5065 35.4647C96.5996 34.6737 96.7267 33.5933 96.814 33.5995C96.9043 33.6058 103.395 34.1553 103.598 34.4857C103.849 34.7743 102.792 43.232 102.792 43.232Z" fill="#383958"/>
<path fill-rule="evenodd" clip-rule="evenodd" d="M114.28 38.2412C118.722 38.1555 120.408 35.2604 120.408 35.2604C120.408 35.2604 120.884 37.3331 120.887 37.4631C120.89 37.5932 130.647 37.5784 130.778 37.5758C130.952 37.5725 130.84 31.8062 130.747 31.5044C130.699 31.2122 127.371 31.3067 127.101 31.3143L127.084 31.3148C127.084 31.3148 126.69 22.2577 126.819 22.1684C126.904 22.08 129.94 21.3709 130.027 21.3692C130.056 21.3686 129.883 18.9162 129.763 17.2098C129.702 16.3506 129.655 15.6805 129.653 15.6079C129.649 15.3911 120.423 15.8728 120.423 15.8728L120.465 18.0406C120.465 18.0406 117.68 15.9257 113.978 15.9972C109.536 16.0829 104.271 18.6134 104.431 26.851C104.605 35.7823 110.274 38.3186 114.28 38.2412ZM115.662 30.8847C113.92 30.9183 112.19 29.3469 112.142 26.8323C112.091 24.2309 113.498 22.6857 115.676 22.6437C117.461 22.6093 118.935 24.4892 118.98 26.787C119.027 29.215 117.622 30.8469 115.662 30.8847Z" fill="#383958"/>
<path d="M145.942 45.3532C145.727 45.5727 131.222 45.6233 131.266 45.6227C131.266 45.6227 130.877 42.4184 130.886 39.6428L133.758 39.4335L133.674 29.2432C133.604 29.1758 132.08 29.3146 131.392 29.3773C131.206 29.3943 131.081 29.4056 131.062 29.4059C131.019 29.4064 130.297 23.9945 130.294 23.7777C130.292 23.5609 139.073 22.1505 139.073 22.1505L140.504 25.0816C140.504 25.0816 141.958 22.9819 145.66 22.9358C149.58 22.8869 152.58 25.9286 152.54 26.2327C152.463 27.0143 148.132 32.4458 147.999 32.3173C147.426 31.7607 146.192 30.6051 144.668 30.6241C142.403 30.6523 140.901 32.4491 140.934 35.0508C140.969 37.8692 141.334 39.209 141.334 39.209L145.784 39.7174L145.942 45.3532Z" fill="#383958"/>
<path fill-rule="evenodd" clip-rule="evenodd" d="M162.872 41.254C167.301 41.6089 168.497 39.7906 168.497 39.7906L168.892 41.3884C169.091 41.6219 179.148 42.08 179.105 42.0765C179.105 42.0765 179.398 38.4457 179.579 35.6759L176.123 35.1813L178.051 10.7995C177.801 10.6489 166.719 9.89124 166.806 9.8982C166.819 9.89919 166.755 10.3152 166.663 10.9158C166.432 12.43 166.022 15.1176 166.196 15.2873C166.359 15.4309 169.49 16.1604 169.49 16.1604L169.126 20.6557C169.126 20.6557 167.779 18.9381 164.089 18.6423C159.661 18.2873 154.413 19.955 153.686 28.9456C152.966 37.8497 158.878 40.9338 162.872 41.254ZM164.17 34.3973C162.477 34.2616 161.427 32.6548 161.657 29.802C161.892 26.906 162.993 25.1671 165.077 25.3342C166.771 25.4699 167.768 27.725 167.558 30.3185C167.338 33.0416 166.037 34.5469 164.17 34.3973Z" fill="#383958"/>
<path d="M188.27 33.7203C187.411 33.7763 184.297 33.6658 184.109 33.4057C183.781 32.9378 180.495 20.6437 180.869 13.4483C181.801 12.9452 190.133 13.3746 193.361 14.1923C192.756 25.835 188.774 33.6962 188.27 33.7203Z" fill="#383958"/>
<path d="M186.009 49.1355C182.546 48.957 180.74 46.9099 180.803 43.7568C180.919 40.5562 183.332 38.6764 185.992 38.8135C188.702 38.9532 191.092 41.3811 190.954 44.0295C190.814 46.7277 189.421 49.3114 186.009 49.1355Z" fill="#383958"/>
<path d="M70.519 12.6084C73.592 12.4804 74.6215 10.0487 74.5194 7.61911C74.4191 5.23451 72.0726 3.25901 69.6323 3.36069C67.2371 3.46049 65.234 5.3468 65.4002 8.22443C65.6098 11.0552 67.4008 12.7383 70.519 12.6084Z" stroke="white" stroke-width="6" mask="url(#path-1-outside-1)"/>
<path d="M64.0802 38.2067C64.035 38.2086 79.5412 37.6977 79.7577 37.4634L79.4403 32.068L75.7101 31.6375L75.0822 16.7C71.9789 16.1082 62.4625 16.9554 62.472 17.1804C62.4814 17.4054 63.4071 23.2711 63.4523 23.2692C63.4695 23.2685 63.6087 23.2545 63.8232 23.2328C64.7306 23.1413 66.9857 22.9139 67.0619 22.9836L67.4006 32.119L63.5217 32.4609C63.5976 35.3423 64.0802 38.2067 64.0802 38.2067Z" stroke="white" stroke-width="6" mask="url(#path-1-outside-1)"/>
<path fill-rule="evenodd" clip-rule="evenodd" d="M29.1063 47.545C21.8681 47.585 18.9609 42.613 18.1267 39.657C11.0381 39.299 6.01701 33.468 4.35962 25.3482C2.42298 15.8603 7.06468 8.07425 15.442 6.3793C23.8194 4.68435 31.5213 8.27271 33.8542 19.7023C35.8449 29.455 33.1921 35.0005 27.3816 37.7385C27.4113 37.805 27.4408 37.8736 27.4708 37.9436C27.7834 38.6713 28.1549 39.5362 29.4983 39.516C31.033 39.5731 32.9625 38.1718 34.0414 37.1263C34.0414 37.1263 37.6045 41.9197 37.6531 43.2884C37.1089 45.1447 33.2396 47.444 29.1063 47.545ZM13.1283 23.9876C13.984 28.1799 16.7104 32.0397 21.1782 31.0898C25.513 30.1669 26.0688 26.3323 25.195 22.0517C24.1412 16.8885 21.9932 13.601 17.8266 14.4439C13.3942 15.3407 12.2906 19.8835 13.1283 23.9876Z" stroke="white" stroke-width="6" mask="url(#path-1-outside-1)"/>
<path d="M46.5247 43.2109C41.9286 42.812 37.2507 40.2363 38.0677 30.905L38.5605 25.7947L36.6837 25.451C36.6837 25.451 36.3634 20.8126 36.8046 19.4044L47.1861 19.5821C47.1861 19.5821 46.9229 22.5879 46.2845 30.3977C46.0213 33.4034 46.9241 35.0187 49.087 35.2064C50.8443 35.3589 52.1769 33.6213 52.4126 30.9296L52.6465 27.7405L49.6843 27.3478L49.8816 20.9461L61.131 21.0636L59.7837 36.4512C59.866 36.5487 62.5264 37.2768 62.6165 37.2847C62.6616 37.2886 62.0881 43.8384 62.0684 44.0627C62.0488 44.287 53.5736 43.5966 53.5736 43.5966L52.9804 41.5562C52.9804 41.5562 50.3548 43.5433 46.5247 43.2109Z" stroke="white" stroke-width="6" mask="url(#path-1-outside-1)"/>
<path d="M102.792 43.232L81.4519 41.7223C81.4068 41.7191 80.6537 35.7518 80.7504 35.6684C80.7682 35.6384 82.2938 34.3972 84.2745 32.7858L84.2769 32.7839L84.2784 32.7826L84.2793 32.7819C88.0249 29.7347 93.3938 25.3668 93.2758 25.3584C93.2212 25.3546 92.8267 25.2853 92.3003 25.1929C91.087 24.98 89.173 24.644 89.1056 24.7022C89.0122 24.7408 88.4042 27.5419 88.4042 27.5419C88.4042 27.5419 82.0747 26.6427 81.7266 26.4375C81.3753 26.2772 82.3941 18.9906 82.3941 18.9906C82.3941 18.9906 103.103 20.4556 103.093 20.5904C103.09 20.6291 103.141 21.1305 103.211 21.8262L103.211 21.8272C103.384 23.5517 103.677 26.4684 103.579 26.4936C103.437 26.5739 91.6201 35.8504 91.7555 35.86C91.7595 35.8603 91.7721 35.8616 91.7927 35.8637L91.8754 35.8724L92.0904 35.8955C93.1439 36.0085 96.3147 36.3489 96.3961 36.2786C96.4144 36.2479 96.4553 35.9001 96.5065 35.4647C96.5996 34.6737 96.7267 33.5933 96.814 33.5995C96.9043 33.6058 103.395 34.1553 103.598 34.4857C103.849 34.7743 102.792 43.232 102.792 43.232Z" stroke="white" stroke-width="6" mask="url(#path-1-outside-1)"/>
<path fill-rule="evenodd" clip-rule="evenodd" d="M114.28 38.2412C118.722 38.1555 120.408 35.2604 120.408 35.2604C120.408 35.2604 120.884 37.3331 120.887 37.4631C120.89 37.5932 130.647 37.5784 130.778 37.5758C130.952 37.5725 130.84 31.8062 130.747 31.5044C130.699 31.2122 127.371 31.3067 127.101 31.3143L127.084 31.3148C127.084 31.3148 126.69 22.2577 126.819 22.1684C126.904 22.08 129.94 21.3709 130.027 21.3692C130.056 21.3686 129.883 18.9162 129.763 17.2098C129.702 16.3506 129.655 15.6805 129.653 15.6079C129.649 15.3911 120.423 15.8728 120.423 15.8728L120.465 18.0406C120.465 18.0406 117.68 15.9257 113.978 15.9972C109.536 16.0829 104.271 18.6134 104.431 26.851C104.605 35.7823 110.274 38.3186 114.28 38.2412ZM115.662 30.8847C113.92 30.9183 112.19 29.3469 112.142 26.8323C112.091 24.2309 113.498 22.6857 115.676 22.6437C117.461 22.6093 118.935 24.4892 118.98 26.787C119.027 29.215 117.622 30.8469 115.662 30.8847Z" stroke="white" stroke-width="6" mask="url(#path-1-outside-1)"/>
<path d="M145.942 45.3532C145.727 45.5727 131.222 45.6233 131.266 45.6227C131.266 45.6227 130.877 42.4184 130.886 39.6428L133.758 39.4335L133.674 29.2432C133.604 29.1758 132.08 29.3146 131.392 29.3773C131.206 29.3943 131.081 29.4056 131.062 29.4059C131.019 29.4064 130.297 23.9945 130.294 23.7777C130.292 23.5609 139.073 22.1505 139.073 22.1505L140.504 25.0816C140.504 25.0816 141.958 22.9819 145.66 22.9358C149.58 22.8869 152.58 25.9286 152.54 26.2327C152.463 27.0143 148.132 32.4458 147.999 32.3173C147.426 31.7607 146.192 30.6051 144.668 30.6241C142.403 30.6523 140.901 32.4491 140.934 35.0508C140.969 37.8692 141.334 39.209 141.334 39.209L145.784 39.7174L145.942 45.3532Z" stroke="white" stroke-width="6" mask="url(#path-1-outside-1)"/>
<path fill-rule="evenodd" clip-rule="evenodd" d="M162.872 41.254C167.301 41.6089 168.497 39.7906 168.497 39.7906L168.892 41.3884C169.091 41.6219 179.148 42.08 179.105 42.0765C179.105 42.0765 179.398 38.4457 179.579 35.6759L176.123 35.1813L178.051 10.7995C177.801 10.6489 166.719 9.89124 166.806 9.8982C166.819 9.89919 166.755 10.3152 166.663 10.9158C166.432 12.43 166.022 15.1176 166.196 15.2873C166.359 15.4309 169.49 16.1604 169.49 16.1604L169.126 20.6557C169.126 20.6557 167.779 18.9381 164.089 18.6423C159.661 18.2873 154.413 19.955 153.686 28.9456C152.966 37.8497 158.878 40.9338 162.872 41.254ZM164.17 34.3973C162.477 34.2616 161.427 32.6548 161.657 29.802C161.892 26.906 162.993 25.1671 165.077 25.3342C166.771 25.4699 167.768 27.725 167.558 30.3185C167.338 33.0416 166.037 34.5469 164.17 34.3973Z" stroke="white" stroke-width="6" mask="url(#path-1-outside-1)"/>
<path d="M188.27 33.7203C187.411 33.7763 184.297 33.6658 184.109 33.4057C183.781 32.9378 180.495 20.6437 180.869 13.4483C181.801 12.9452 190.133 13.3746 193.361 14.1923C192.756 25.835 188.774 33.6962 188.27 33.7203Z" stroke="white" stroke-width="6" mask="url(#path-1-outside-1)"/>
<path d="M186.009 49.1355C182.546 48.957 180.74 46.9099 180.803 43.7568C180.919 40.5562 183.332 38.6764 185.992 38.8135C188.702 38.9532 191.092 41.3811 190.954 44.0295C190.814 46.7277 189.421 49.3114 186.009 49.1355Z" stroke="white" stroke-width="6" mask="url(#path-1-outside-1)"/>
</g>
<defs>
<filter id="logo_drop_shadow_filter" x="0.922852" y="0.357178" width="203.562" height="59.7868" filterUnits="userSpaceOnUse" color-interpolation-filters="sRGB">
<feFlood flood-opacity="0" result="BackgroundImageFix"/>
<feColorMatrix in="SourceAlpha" type="matrix" values="0 0 0 0 0 0 0 0 0 0 0 0 0 0 0 0 0 0 127 0"/>
<feOffset dx="4" dy="4"/>
<feGaussianBlur stdDeviation="2"/>
<feColorMatrix type="matrix" values="0 0 0 0 0.219608 0 0 0 0 0.223529 0 0 0 0 0.345098 0 0 0 0.25 0"/>
<feBlend mode="normal" in2="BackgroundImageFix" result="effect1_dropShadow"/>
<feBlend mode="normal" in="SourceGraphic" in2="effect1_dropShadow" result="shape"/>
</filter>
</defs>
</svg>
